<svg width="371" height="172" viewBox="0 0 371 172" fill="none" xmlns="http://www.w3.org/2000/svg">
<path d="M193.931 84.8227C192.24 86.4667 191.395 88.8622 191.395 92.0093V111.667H180.122V73.0565H189.07V85.7978C189.498 82.161 190.579 79.229 192.311 77.0021C194.659 74.0429 198.041 72.5633 202.456 72.5633H203.936V82.2863H201.118C198.018 82.2863 195.622 83.1318 193.931 84.8227Z" fill="white"/>
<path fill-rule="evenodd" clip-rule="evenodd" d="M228.102 106.946C228.586 106.125 228.985 105.219 229.3 104.228V111.667H238.248V87.9933C238.248 84.4235 237.543 81.5113 236.134 79.2567C234.725 76.9551 232.658 75.2406 229.934 74.1133C227.257 72.986 223.945 72.4224 220 72.4224C218.637 72.4224 217.181 72.4459 215.631 72.4928C214.081 72.5398 212.578 72.6103 211.122 72.7042C209.666 72.7981 208.398 72.8921 207.317 72.986V82.4977C208.773 82.4037 210.394 82.3098 212.179 82.2158C213.964 82.1219 215.702 82.0514 217.393 82.0045C219.084 81.9575 220.446 81.934 221.479 81.934C223.546 81.934 225.049 82.4272 225.988 83.4136C226.928 84.4 227.397 85.8796 227.397 87.8524V87.9933H220.422C216.993 87.9933 213.964 88.4395 211.333 89.3319C208.703 90.1774 206.66 91.5161 205.204 93.348C203.748 95.1329 203.02 97.4344 203.02 100.253C203.02 102.836 203.607 105.067 204.781 106.946C205.955 108.778 207.576 110.187 209.642 111.173C211.756 112.16 214.199 112.653 216.97 112.653C219.647 112.653 221.902 112.16 223.734 111.173C225.613 110.187 227.069 108.778 228.102 106.946ZM226.27 101.873C226.928 100.793 227.304 99.2898 227.397 97.364V94.2639H220.352C218.379 94.2639 216.852 94.7571 215.772 95.7435C214.739 96.6829 214.222 97.9746 214.222 99.6186C214.222 101.169 214.739 102.437 215.772 103.423C216.852 104.363 218.379 104.832 220.352 104.832C221.62 104.832 222.747 104.621 223.734 104.198C224.767 103.729 225.613 102.954 226.27 101.873Z" fill="white"/>
<path d="M261.622 113.005C258.287 113.005 255.375 112.465 252.885 111.385C250.443 110.258 248.399 108.754 246.755 106.876C245.111 104.997 243.89 102.883 243.092 100.535C242.293 98.139 241.894 95.673 241.894 93.1366V91.7979C241.894 89.1675 242.317 86.6546 243.162 84.2591C244.008 81.8166 245.252 79.6559 246.896 77.7771C248.54 75.8982 250.584 74.4186 253.026 73.3383C255.515 72.258 258.357 71.7178 261.551 71.7178C265.027 71.7178 268.104 72.3989 270.781 73.761C273.458 75.0762 275.596 76.9316 277.193 79.3271C278.79 81.7226 279.682 84.4704 279.87 87.5705H268.808C268.62 85.8326 267.916 84.3765 266.695 83.2022C265.52 81.981 263.806 81.3704 261.551 81.3704C259.672 81.3704 258.099 81.8401 256.831 82.7795C255.609 83.7189 254.693 85.0106 254.083 86.6546C253.472 88.2986 253.167 90.2479 253.167 92.5025C253.167 94.5692 253.449 96.4481 254.012 98.139C254.576 99.783 255.469 101.075 256.69 102.014C257.958 102.907 259.602 103.353 261.622 103.353C263.125 103.353 264.393 103.094 265.426 102.578C266.507 102.014 267.352 101.263 267.963 100.323C268.62 99.3368 269.02 98.2095 269.161 96.9412H280.152C280.011 100.135 279.118 102.954 277.474 105.396C275.83 107.792 273.646 109.67 270.922 111.033C268.198 112.348 265.098 113.005 261.622 113.005Z" fill="white"/>
<path fill-rule="evenodd" clip-rule="evenodd" d="M292.787 111.314C295.323 112.442 298.235 113.005 301.523 113.005C304.764 113.005 307.629 112.442 310.119 111.314C312.608 110.187 314.675 108.614 316.319 106.594C317.963 104.574 319.067 102.272 319.631 99.6891H309.273C308.804 100.863 307.911 101.85 306.596 102.648C305.281 103.447 303.59 103.846 301.523 103.846C299.269 103.846 297.437 103.376 296.028 102.437C294.618 101.497 293.585 100.182 292.928 98.4913C292.561 97.5221 292.296 96.4652 292.134 95.3207H320.335V91.5161C320.335 87.9933 319.584 84.7523 318.08 81.7931C316.577 78.7869 314.393 76.3679 311.528 74.5361C308.71 72.6572 305.234 71.7178 301.1 71.7178C297.953 71.7178 295.135 72.2815 292.646 73.4088C290.203 74.4891 288.16 75.9687 286.516 77.8475C284.872 79.7264 283.604 81.8636 282.711 84.2591C281.866 86.6076 281.443 89.0736 281.443 91.657V93.0661C281.443 95.5556 281.866 97.9981 282.711 100.394C283.604 102.742 284.872 104.879 286.516 106.805C288.207 108.684 290.297 110.187 292.787 111.314ZM292.22 88.9092C292.396 87.899 292.656 86.9831 292.998 86.1614C293.703 84.4235 294.736 83.1083 296.098 82.2158C297.46 81.3234 299.128 80.8772 301.1 80.8772C303.026 80.8772 304.623 81.3234 305.892 82.2158C307.207 83.0613 308.193 84.306 308.851 85.95C309.207 86.8401 309.466 87.8264 309.63 88.9092H292.22Z" fill="white"/>
<path d="M153.281 111.667V70.3087H138.837V60.2334H179.349V70.3087H164.835V111.667H153.281Z" fill="white"/>
<path fill-rule="evenodd" clip-rule="evenodd" d="M86.1921 56.6986C70.1244 56.6986 57.0989 69.724 57.0989 85.7917C57.0989 101.859 70.1244 114.885 86.1921 114.885C102.26 114.885 115.285 101.859 115.285 85.7917C115.285 69.724 102.26 56.6986 86.1921 56.6986ZM50.6338 85.7917C50.6338 66.1534 66.5538 50.2334 86.1921 50.2334C105.83 50.2334 121.75 66.1534 121.75 85.7917C121.75 105.43 105.83 121.35 86.1921 121.35C66.5538 121.35 50.6338 105.43 50.6338 85.7917Z" fill="white"/>
<path fill-rule="evenodd" clip-rule="evenodd" d="M103.931 73.7364C104.879 70.7514 102.048 67.9478 99.0723 68.9242L78.8026 75.5752C77.6293 75.9602 76.7126 76.8858 76.3389 78.0628L70.0582 97.847C69.1106 100.832 71.9414 103.636 74.9171 102.659L95.1868 96.0083C96.3601 95.6233 97.2768 94.6977 97.6505 93.5207L103.931 73.7364ZM86.991 90.4095C89.5414 90.4095 91.6089 88.342 91.6089 85.7916C91.6089 83.2412 89.5414 81.1737 86.991 81.1737C84.4406 81.1737 82.373 83.2412 82.373 85.7916C82.373 88.342 84.4406 90.4095 86.991 90.4095Z" fill="white"/>
</svg>
