<svg xmlns="http://www.w3.org/2000/svg" data-name="Layer 1" viewBox="0 0 1920 1080" id="packaging-for-delivery"><defs><linearGradient id="a" x1="878.51" x2="878.51" y1="174.71" y2="905.29" gradientUnits="userSpaceOnUse"><stop offset="0" stop-color="#f8cda0" stop-opacity=".6"></stop><stop offset="1" stop-color="#f8cda0" stop-opacity="0"></stop></linearGradient></defs><circle cx="878.51" cy="540" r="365.29" fill="url(#a)"></circle><rect width="19.51" height="27.06" x="1087.78" y="393.43" fill="#c16e6a" transform="rotate(-8.1 1128.531 405.035)"></rect><rect width="19.51" height="10.87" x="1089.02" y="409.52" fill="#f4afad" transform="rotate(-8.1 1129.92 413.195)"></rect><rect width="3.3" height="10.87" x="1089.12" y="410.77" fill="#f5c6ba" transform="rotate(-8.83 1090.963 416.277)"></rect><rect width="3.3" height="16.19" x="1087.04" y="394.74" fill="#dd9075" transform="rotate(-8.83 1088.87 402.891)"></rect><path fill="#63496a" d="M1086.5,399.47l19.2-3.45,1.06,6.79S1092.63,407.73,1086.5,399.47Z"></path><path fill="#695974" d="M1086.5,399.47a10.8,10.8,0,0,0,3.84,3.2l-.58-3.71-3.26.51Z"></path><polygon fill="#c16e6a" points="1307 831.75 1133.53 788.13 1118.76 867.41 1314.65 869.39 1307 831.75"></polygon><path fill="#c16e6a" d="M1321.49,820.64,1440,858.91c7,2.26,5.28,12.58-2.06,12.46l-129.35-2L1304,835.24A13.47,13.47,0,0,1,1321.49,820.64Z"></path><path fill="#f8cda0" d="M1440,858.91l-118.49-38.27a13.47,13.47,0,0,0-17.48,14.6l.32,2.41c.49,0,1-.07,1.46-.07a34.94,34.94,0,0,1,34.83,32.29l97.3,1.5C1445.26,871.49,1447,861.17,1440,858.91Z"></path><polygon fill="#63496a" points="1292.8 828.18 1288.55 869.01 1262.76 868.86 1285.36 826.48 1292.8 828.18"></polygon><path fill="#fcbf86" d="M1125.47,867.39a20.91,20.91,0,0,1-20.69-20.83l-.91-248.3-6.61-.7.91,249a20.92,20.92,0,0,0,20.69,20.83l52.05.55v-.07Z"></path><path fill="#f3a978" d="M1279,809.74l-94.3-14,35-183.38a123.26,123.26,0,0,0-17.8-90.36h0l-104.57,75.57.92,249a20.91,20.91,0,0,0,20.58,20.83v0l52.14.53h0L1277.23,869l14.47-37.39A16.21,16.21,0,0,0,1279,809.74Z"></path><path fill="#f4afad" d="M1201.83,522l-148.11,19,.69-82.2a43.88,43.88,0,0,1,37.36-43l19.39-2.91a43.87,43.87,0,0,1,45.34,23Z"></path><path fill="#f5c6ba" d="M1062,464.51c.19-21.57,8.4-45.53,29.73-48.73h0a43.88,43.88,0,0,0-37.36,43l-.69,82.2,7.68-1Z"></path><path fill="#f3a978" d="M1219.36,612.63l-7.19,36.82-131.35,10.6L1053.72,541l148.11-19,.34.54A123.26,123.26,0,0,1,1219.36,612.63Z"></path><path fill="#63496a" d="M980.65,834.73l2.59-19.48-50.58,1.47v0A159.18,159.18,0,0,0,980.65,834.73Z"></path><path fill="#c16e6a" d="M962.24,584a76.78,76.78,0,0,0-44.46,77.41l2.59,26L936,852.08l42.78-3.41,21.69-163.19,5.8-121.62Z"></path><path fill="#f3a978" d="M1131.25,681.4,1053.72,541l-47.43,22.87h0l-45.43,20.8a76.79,76.79,0,0,0-44.63,75.39l10.6,145.49a16.07,16.07,0,0,0,16,14.91h31.88A26.24,26.24,0,0,0,1001,794.81l2.53-109.42Z"></path><path fill="#fcbf86" d="M934.46,811.27l-10.6-145.49a76.79,76.79,0,0,1,44.63-75.4L1061.4,540l-7.68,1-47.43,22.87h0l-45.43,20.8a76.8,76.8,0,0,0-44.63,75.39l10.6,145.49a16.06,16.06,0,0,0,10.63,14A16,16,0,0,1,934.46,811.27Z"></path><path fill="#63496a" d="M1153.66 517.68h0l-37.9 6.42s28.61 4.3 39.34.89h0zM1228.91 563.59c0 .18-.05.36-.09.54l.11-.54z"></path><path fill="#e08b52" d="M1097.26,682.46l52.51-2.67a86.7,86.7,0,0,0,54.72-23.18l7.68-7.16L1206.4,680a42.69,42.69,0,0,1-12,5.48C1160.8,695.56,1097.26,682.46,1097.26,682.46Z"></path><path fill="#303363" d="M1082.63,386.75c-5.7,1.3-8.68-15.39-7.48-19.46,2.34-15.88,40.7-15.15,34.2,3.4,2.57.66,4.32,11.59,1.21,14.46-9.9,9.17-18.12,2.14-27.93,1.6"></path><path fill="#695974" d="M1079,371.1c1.64-11.1,20.88-14.07,30.09-8.51-5.56-10.18-32-8.4-33.9,4.7-1.13,3.82,1.44,18.77,6.47,19.5C1079.21,381.9,1078.18,373.78,1079,371.1Z"></path><rect width="29.56" height="38.76" x="1079.34" y="362.86" fill="#c16e6a" rx="14.78"></rect><path fill="#303363" d="M1108.91,386.55c.37-3.92,4.43-13-1-14-.82-10-18.75-13.87-25.26-8.77-7.44,5.83-3.53,21.56-3.53,21.56a34.13,34.13,0,0,0,2.07-12.42c8,.53,17.4.43,25.18-1.24C1107.15,376.18,1107.47,383.13,1108.91,386.55Z"></path><rect width="214.01" height="218.79" x="475.59" y="674.2" fill="none" stroke="#000" stroke-miterlimit="10" stroke-width="1.5"></rect><rect width="60.29" height="16.25" x="495.78" y="698.28" fill="none" stroke="#000" stroke-miterlimit="10" stroke-width="1.5"></rect><rect width="60.29" height="16.25" x="611.24" y="853.56" fill="none" stroke="#000" stroke-miterlimit="10" stroke-width="1.5"></rect><rect width="214.01" height="218.79" x="689.6" y="674.2" fill="none" stroke="#000" stroke-miterlimit="10" stroke-width="1.5"></rect><rect width="60.29" height="16.25" x="709.79" y="698.28" fill="none" stroke="#000" stroke-miterlimit="10" stroke-width="1.5"></rect><rect width="214.01" height="218.79" x="535.39" y="455.41" fill="none" stroke="#000" stroke-miterlimit="10" stroke-width="1.5"></rect><rect width="88.17" height="218.79" x="749.39" y="455.41" fill="none" stroke="#000" stroke-miterlimit="10" stroke-width="1.5" transform="rotate(180 793.48 564.81)"></rect><rect width="60.29" height="16.25" x="555.58" y="479.49" fill="none" stroke="#000" stroke-miterlimit="10" stroke-width="1.5"></rect><rect width="60.29" height="16.25" x="671.04" y="634.77" fill="none" stroke="#000" stroke-miterlimit="10" stroke-width="1.5"></rect><polygon fill="none" stroke="#000" stroke-miterlimit="10" stroke-width="1.5" points="890.85 404.91 802.68 404.91 749.39 455.41 837.57 455.41 890.85 404.91"></polygon><polygon fill="none" stroke="#000" stroke-miterlimit="10" stroke-width="1.5" points="482.03 404.91 570.21 404.91 623.49 455.41 535.32 455.41 482.03 404.91"></polygon><rect width="175.51" height="179.43" x="812.5" y="478.21" fill="#549999"></rect><rect width="72.31" height="179.43" x="988.01" y="478.21" fill="#388888" transform="rotate(180 1024.165 567.92)"></rect><rect width="49.45" height="13.33" x="829.07" y="497.95" fill="#fff"></rect><rect width="49.45" height="13.33" x="923.75" y="625.3" fill="#fff"></rect><polygon fill="#549999" points="1104.02 554.75 1031.71 554.75 988.01 478.21 1060.32 478.21 1104.02 554.75"></polygon><polygon fill="#388888" points="768.75 554.75 812.5 554.75 812.45 478.21 768.75 554.75"></polygon><rect width="60.29" height="16.25" x="738.81" y="853.56" fill="none" stroke="#000" stroke-miterlimit="10" stroke-width="1.5"></rect><rect width="174.56" height="178.46" x="873.08" y="714.53" fill="#549999"></rect><rect width="49.18" height="13.26" x="889.55" y="734.17" fill="#fff"></rect><rect width="49.18" height="13.26" x="983.72" y="860.83" fill="#fff"></rect><rect width="71.92" height="178.46" x="1047.64" y="714.53" fill="#388888" transform="rotate(180 1083.595 803.765)"></rect><path fill="#c16e6a" d="M1135.67,426l-49.57,13.23,32.31,92.45-84.23,70.83,10.21,14.44,99.1-61.69a26.72,26.72,0,0,0,12.09-27.82Z"></path><path fill="#c16e6a" d="M1034.47,602.38l-33.55,2.71a3.61,3.61,0,0,0-1.77,6.56l11.37,7.9a3.59,3.59,0,0,1,1.48,3.71L1003,666a3.61,3.61,0,0,0,6.53,2.76l35-52.06a3.62,3.62,0,0,0-.15-4.24l-6.8-8.7A3.64,3.64,0,0,0,1034.47,602.38Z"></path><path fill="#dd9075" d="M1011.32,663.23l9-42.75a3.61,3.61,0,0,0-1.47-3.71l-11.37-7.89a3.55,3.55,0,0,1-1.3-4.22l-5.26.43a3.61,3.61,0,0,0-1.77,6.56l11.37,7.9a3.59,3.59,0,0,1,1.48,3.71L1003,666a3.61,3.61,0,0,0,6.53,2.76l2.11-3.14A3.46,3.46,0,0,1,1011.32,663.23Z"></path><polygon fill="#f4afad" points="1158.49 516.86 1140.3 424.2 1080.82 440.07 1110.5 524.99 1158.49 516.86"></polygon><polygon fill="#f5c6ba" points="1087.43 440.07 1080.82 440.07 1110.5 524.99 1116.45 523.11 1087.43 440.07"></polygon><path fill="#916881" d="M1089.11 463.8c1 2.51 2 5 2.93 7.56l2.82 7.6c1.87 5.07 3.64 10.17 5.47 15.25s3.52 10.21 5.22 15.34l2.53 7.7c.8 2.58 1.64 5.15 2.42 7.74-1-2.51-2-5-2.93-7.56l-2.82-7.6c-1.86-5.07-3.64-10.17-5.46-15.25s-3.53-10.22-5.23-15.34l-2.53-7.7C1090.73 469 1089.89 466.39 1089.11 463.8zM1145.23 449.27c.67 2.79 1.28 5.6 1.92 8.4l1.81 8.42c1.19 5.61 2.29 11.24 3.44 16.87s2.17 11.27 3.19 16.92l1.51 8.48c.46 2.83 1 5.66 1.39 8.5-.67-2.79-1.28-5.6-1.92-8.4l-1.81-8.42c-1.19-5.61-2.29-11.24-3.44-16.87s-2.17-11.27-3.19-16.92l-1.51-8.48C1146.16 454.93 1145.66 452.11 1145.23 449.27z"></path></svg>